<?xml version="1.0" encoding="UTF-8"?><svg id="Layer_1" xmlns="http://www.w3.org/2000/svg" viewBox="0 0 151.58 70.97"><path d="M21.63,69.69L0,0h14.68l8.32,27.11c2.94,9.4,5.48,18.99,7.54,28.48h.2c2.06-9.49,4.7-19.09,7.54-28.48L46.59,0h14.68l-21.63,69.69h-18.01Z"/><path d="M63.28,11.75V0h13.7v11.75h-13.7ZM63.28,69.69V19.97h13.7v49.73h-13.7Z"/><path d="M117.33,69.69v-6.56h-.2c-3.03,5.09-8.52,7.83-14.29,7.83-12.53,0-20.65-10.28-20.65-26.14s8.03-26.14,20.46-26.14c5.68,0,11.06,2.54,14.1,7.24h.2V0h13.7v69.69h-13.31ZM96.48,44.83c0,9.49,4.21,15.66,10.77,15.66,6.17,0,10.38-5.78,10.38-15.66s-4.21-15.66-10.38-15.66c-6.56,0-10.77,6.17-10.77,15.66Z"/><path d="M136.51,69.69v-16.35h15.07v16.35h-15.07Z"/></svg>